<svg width="28" height="28" viewBox="0 0 28 28" fill="none" xmlns="http://www.w3.org/2000/svg">
<path fill-rule="evenodd" clip-rule="evenodd" d="M14 4.08333C8.52319 4.08333 4.08334 8.52317 4.08334 14C4.08334 19.4768 8.52319 23.9167 14 23.9167C19.4768 23.9167 23.9167 19.4768 23.9167 14C23.9167 8.52317 19.4768 4.08333 14 4.08333ZM2.33334 14C2.33334 7.55667 7.55669 2.33333 14 2.33333C20.4433 2.33333 25.6667 7.55667 25.6667 14C25.6667 20.4433 20.4433 25.6667 14 25.6667C7.55669 25.6667 2.33334 20.4433 2.33334 14Z" fill="#FECB23"/>
<path fill-rule="evenodd" clip-rule="evenodd" d="M24.7917 14C24.7917 19.9601 19.9601 24.7917 14 24.7917C8.03994 24.7917 3.20834 19.9601 3.20834 14C3.20834 8.03992 8.03994 3.20833 14 3.20833C19.9601 3.20833 24.7917 8.03992 24.7917 14ZM21.1018 10.6669C21.4517 10.3336 21.4652 9.77979 21.132 9.42985C20.7987 9.07991 20.2448 9.06641 19.8949 9.39968L12.1676 16.759L8.10433 12.8989C7.75397 12.5661 7.20013 12.5803 6.8673 12.9306C6.53446 13.281 6.54866 13.8348 6.89901 14.1677L11.5657 18.601C11.9037 18.9221 12.4342 18.9218 12.7718 18.6003L21.1018 10.6669Z" fill="#FECB23"/>
</svg>
