<svg width="28" height="28" viewBox="0 0 28 28" fill="none" xmlns="http://www.w3.org/2000/svg">
<path fill-rule="evenodd" clip-rule="evenodd" d="M13.9943 4.0775C8.51748 4.0775 4.07764 8.51734 4.07764 13.9942C4.07764 19.471 8.51748 23.9108 13.9943 23.9108C19.4711 23.9108 23.911 19.471 23.911 13.9942C23.911 8.51734 19.4711 4.0775 13.9943 4.0775ZM2.32764 13.9942C2.32764 7.55084 7.55098 2.3275 13.9943 2.3275C20.4376 2.3275 25.661 7.55084 25.661 13.9942C25.661 20.4375 20.4376 25.6608 13.9943 25.6608C7.55098 25.6608 2.32764 20.4375 2.32764 13.9942Z" fill="#CCCCD6"/>
<path fill-rule="evenodd" clip-rule="evenodd" d="M21.1263 9.42405C21.4595 9.77399 21.446 10.3278 21.0961 10.6611L12.7661 18.5945C12.4285 18.916 11.898 18.9163 11.56 18.5952L6.89332 14.1619C6.54296 13.829 6.52876 13.2752 6.8616 12.9248C7.19444 12.5745 7.74827 12.5603 8.09863 12.8931L12.1619 16.7532L19.8892 9.39388C20.2391 9.0606 20.793 9.07411 21.1263 9.42405Z" fill="#CCCCD6"/>
</svg>
